{"title":"Sta dixtya tou pepromenou ep 61 Tvrip by Ari Gr Subs","uid":12501411,"size":456137392,"categoryP":"video","categoryS":"tv_shows","magnet":"?xt=urn:btih:8cc9d834aa0c46179b865323a1a500cc800aa46d&amp;dn=Sta+dixtya+tou+pepromenou+ep+61+Tvrip+by+Ari+Gr+Subs&amp;tr=udp%3A%2F%2Ftracker.leechers-paradise.org%3A6969&amp;tr=udp%3A%2F%2Fzer0day.ch%3A1337&amp;tr=udp%3A%2F%2Fopen.demonii.com%3A1337&amp;tr=udp%3A%2F%2Ftracker.coppersurfer.tk%3A6969&amp;tr=udp%3A%2F%2Fexodus.desync.com%3A6969","seeders":0,"leechers":0,"uploader":"Aris2015","files":1,"time":1443374723,"description":"Î•Î Î•Î™Î£ÎŸÎ”Î™ÎŸ 61\r\nÎŸ ÎšÎ±Ï‡ÏÎ±Î¼Î¬Î½ Î¼Î±Î¸Î±Î¯Î½ÎµÎ¹ ÏŒÏ„Î¹ Î· ÎœÎµÏÎ¹Î­Î¼ Î­Ï‡ÎµÎ¹ Ï†ÏÎ³ÎµÎ¹ Î±Ï€' Ï„Î¿ Î§Î±Ï„Î¬Î¹. Î’Î»Î­Ï€Î¿Î½Ï„Î±Ï‚ Ï„Î± Ï€Î»Î¬Î½Î± Ï„Î¿Ï… Î½Î¿ÏƒÎ¿ÎºÎ¿Î¼ÎµÎ¯Î¿Ï…, Î±Î½Ï„Î¹Î»Î±Î¼Î²Î¬Î½ÎµÏ„Î±Î¹ ÏŒÏ„Î¹ Î· Î±Î´ÎµÏÏ†Î® Ï„Î¿Ï… ÎºÏÏÎ²ÎµÏ„Î±Î¹ Ï€Î¯ÏƒÏ‰ Î±Ï€' Ï„Î·Î½ Î±Ï€Î±Î³Ï‰Î³Î®. ÎŸ ÎœÎ±ÎºÏƒÎ¿ÏÏ„ Î¼Î±Î¸Î±Î¯Î½ÎµÎ¹ Ï€Î¿Î¹Î¿Ï‚ ÎµÎ¯Î½Î±Î¹ Î¿ Î™Î¼Ï€ÏÎ±Î®Î¼ ÎºÎ±Î¹ Ï€Î¿Î¹Î± ÎµÎ¯Î½Î±Î¹ Ï„Î± ÏƒÏ‡Î­Î´Î¹Î¬ Ï„Î¿Ï… ÎºÎ¹ Î­Ï„ÏƒÎ¹ ÎºÎ±Ï„Î±ÏƒÏ„ÏÏŽÎ½ÎµÎ¹ Î­Î½Î± Î½Î­Î¿ ÏƒÏ‡Î­Î´Î¹Î¿ Ï€Î¿Ï… Î¸Î± Ï†Î­ÏÎµÎ¹ Ï„Î·Î½ Î•Î»Î¯Ï† ÎºÎ¿Î½Ï„Î¬ Ï„Î¿Ï…. ÎŸ Î™Î¼Ï€ÏÎ±Î®Î¼ Î±Î½Î±Î³ÎºÎ¬Î¶ÎµÏ„Î±Î¹ Î½Î± ÏƒÏ…Î½ÎµÏÎ³Î±ÏƒÏ„ÎµÎ¯ Î¼Îµ Ï„Î¿Î½ ÎœÎ±ÎºÏƒÎ¿ÏÏ„.\r\n\r\nsta.dixtya.tou.pepromenou.ep.61.TVrip.By.Ari.avi\r\nFormat                      : AVI\r\nFormat/Info                 : Audio Video Interleave\r\nFile size                   : 435 MiB\r\nDuration                    : 56mn 5s\r\nOverall bit rate            : 1 084 Kbps\r\n\r\nVideo\r\nID                          : 0\r\nFormat                      : MPEG-4 Visual\r\nFormat profile              : Advanced   \r\nFormat settings, BVOP       : 1\r\nFormat settings, QPel       : No\r\nFormat settings, GMC        : No warppoints\r\nFormat settings, Matrix     : Default (H.263)\r\nMuxing mode                 : Packed bitstream\r\nCodec ID                    : XVID\r\nCodec ID/Hint               : XviD\r\nDuration                    : 56mn 5s\r\nBit rate                    : 950 Kbps\r\nWidth                       : 720 pixels\r\nHeight                      : 400 pixels\r\nDisplay aspect ratio        : 16:9\r\nFrame rate                  : 25.000 fps\r\nColor space                 : YUV\r\nChroma subsampling          : 4:2:0\r\nBit depth                   : 8 bits\r\nScan type                   : Progressive\r\nCompression mode            : Lossy\r\nBits/(Pixel*Frame)          : 0.132\r\nStream size                 : 381 MiB (88%)\r\nWriting library             : XviD 1.2.1 (UTC 2008-12-04)\r\n\r\nAudio\r\nID                          : 1\r\nFormat                      : MPEG Audio\r\nFormat version              : Version 1\r\nFormat profile              : Layer 3\r\nMode                        : Joint stereo\r\nMode extension              : MS Stereo\r\nCodec ID                    : 55\r\nCodec ID/Hint               : MP3\r\nDuration                    : 56mn 5s\r\nBit rate mode               : Constant\r\nBit rate                    : 128 Kbps\r\nChannel(s)                  : 2 channels\r\nSampling rate               : 48.0 KHz\r\nCompression mode            : Lossy\r\nStream size                 : 51.3 MiB (12%)\r\nAlignment                   : Aligned on interleaves\r\nInterleave, duration        : 160 ms (4.00 video frames)\r\nInterleave, preload duratio : 216 ms\r\nTitle                       : sta.dixtya.tou.pepromenou.ep.61.TVrip.By.Ari\r\nWriting library             : LAME3.99r\r\nEncoding settings           : -m j -V 4 -q 2 -lowpass 17 -b 128","torrent":{"xt":"urn:btih:8cc9d834aa0c46179b865323a1a500cc800aa46d","amp;dn":"Sta+dixtya+tou+pepromenou+ep+61+Tvrip+by+Ari+Gr+Subs","amp;tr":["udp%3A%2F%2Ftracker.leechers-paradise.org%3A6969","udp%3A%2F%2Fzer0day.ch%3A1337","udp%3A%2F%2Fopen.demonii.com%3A1337","udp%3A%2F%2Ftracker.coppersurfer.tk%3A6969","udp%3A%2F%2Fexodus.desync.com%3A6969"],"infoHash":"8cc9d834aa0c46179b865323a1a500cc800aa46d","infoHashBuffer":{"type":"Buffer","data":[140,201,216,52,170,12,70,23,155,134,83,35,161,165,0,204,128,10,164,109]},"announce":[],"urlList":[]}}